HIERARCHY
ROOT Hips
{
  OFFSET 52.7991 94.0837 12.9887
  CHANNELS 6 Xposition Yposition Zposition Zrotation Xrotation Yrotation
  JOINT spine
  {
    OFFSET 0 7.80059 0.448573
    CHANNELS 3 Zrotation Xrotation Yrotation
    JOINT spine1
    {
      OFFSET 0 10.1364 0
      CHANNELS 3 Zrotation Xrotation Yrotation
      JOINT spine2
      {
        OFFSET 0 9.71251 0
        CHANNELS 3 Zrotation Xrotation Yrotation
        JOINT Neck
        {
          OFFSET 0 24.9361 1.18887
          CHANNELS 3 Zrotation Xrotation Yrotation
          JOINT Head
          {
            OFFSET 0 7.53384 0
            CHANNELS 3 Zrotation Xrotation Yrotation
            End Site
            {
              OFFSET 0 18.2361 -6.01402
            }
          }
        }
        JOINT RightShoulder
        {
          OFFSET -4.08965 10.4888 -0.569457
          CHANNELS 3 Zrotation Xrotation Yrotation
          JOINT RightArm
          {
            OFFSET 0 13.757 0
            CHANNELS 3 Zrotation Xrotation Yrotation
            JOINT RightArmRoll
            {
              OFFSET 0 6.94478 0
              CHANNELS 3 Zrotation Xrotation Yrotation
              JOINT RightForeArm
              {
                OFFSET 0 20.2277 0
                CHANNELS 3 Zrotation Xrotation Yrotation
                JOINT RightForeArmRoll
                {
                  OFFSET 0 7.79312 0
                  CHANNELS 3 Zrotation Xrotation Yrotation
                  JOINT RightHand
                  {
                    OFFSET 0 15.6391 0
                    CHANNELS 3 Zrotation Xrotation Yrotation
                    End Site
                    {
                      OFFSET 0 0 0
                    }
                  }
                }
              }
            }
          }
        }
        JOINT LeftShoulder
        {
          OFFSET 4.08965 10.4888 -0.569457
          CHANNELS 3 Zrotation Xrotation Yrotation
          JOINT LeftArm
          {
            OFFSET 0 13.757 0
            CHANNELS 3 Zrotation Xrotation Yrotation
            JOINT LeftArmRoll
            {
              OFFSET 0 6.94478 0
              CHANNELS 3 Zrotation Xrotation Yrotation
              JOINT LeftForeArm
              {
                OFFSET 0 20.2277 0
                CHANNELS 3 Zrotation Xrotation Yrotation
                JOINT LeftForeArmRoll
                {
                  OFFSET 0 7.79312 0
                  CHANNELS 3 Zrotation Xrotation Yrotation
                  JOINT LeftHand
                  {
                    OFFSET 0 15.6391 0
                    CHANNELS 3 Zrotation Xrotation Yrotation
                    End Site
                    {
                      OFFSET 0 0 0
                    }
                  }
                }
              }
            }
          }
        }
      }
    }
  }
  JOINT RightUpLeg
  {
    OFFSET -6.91416 -1.26788 -1.06358
    CHANNELS 3 Zrotation Xrotation Yrotation
    JOINT RightUpLegRoll
    {
      OFFSET 0 18.3378 0
      CHANNELS 3 Zrotation Xrotation Yrotation
      JOINT RightLeg
      {
        OFFSET 0 -22.7085 0
        CHANNELS 3 Zrotation Xrotation Yrotation
        JOINT RightLegRoll
        {
          OFFSET 0 22.7828 0
          CHANNELS 3 Zrotation Xrotation Yrotation
          JOINT RightFoot
          {
            OFFSET 0 18.9629 0
            CHANNELS 3 Zrotation Xrotation Yrotation
            JOINT RightToeBase
            {
              OFFSET 0 15.852 0
              CHANNELS 3 Zrotation Xrotation Yrotation
              End Site
              {
                OFFSET 0.00671906 7.67701 -0.884892
              }
            }
          }
        }
      }
    }
  }
  JOINT LeftUpLeg
  {
    OFFSET 6.91416 -1.26788 -1.06358
    CHANNELS 3 Zrotation Xrotation Yrotation
    JOINT LeftUpLegRoll
    {
      OFFSET 0 18.3379 0
      CHANNELS 3 Zrotation Xrotation Yrotation
      JOINT LeftLeg
      {
        OFFSET 0 22.7084 0
        CHANNELS 3 Zrotation Xrotation Yrotation
        JOINT LeftLegRoll
        {
          OFFSET 0 22.9934 0
          CHANNELS 3 Zrotation Xrotation Yrotation
          JOINT LeftFoot
          {
            OFFSET 0 18.7522 0
            CHANNELS 3 Zrotation Xrotation Yrotation
            JOINT LeftToeBase
            {
              OFFSET 0 15.852 0
              CHANNELS 3 Zrotation Xrotation Yrotation
              End Site
              {
                OFFSET -0.030112 7.67701 -0.884893
              }
            }
          }
        }
      }
    }
  }
}
MOTION
Frames: 12
Frame Time: 0.00208333
53.1645 94.0446 14.6798 0.542011 -7.18259 1.3591 -0.163814 -2.60717 0.303948 -0.316187 -1.21516 0.622959 -0.323647 0.429864 0.629218 -4.11418 37.3024 -0.022175 5.46911 -14.4936 -0.685024 24.9516 -14.1011 -10.8323 -5.50581 51.9984 91.6201 -2.82914e-006 4.06839e-007 9.2969e-006 2.24519 59.8832 -1.21464 -1.2275e-006 -9.43724e-007 -3 8.02921 -4.95153 0.697703 -25.0844 -13.1754 9.73933 0.683047 51.7352 -99.7253 -1.78281e-005 2.34208e-007 -2.09019e-007 13.8621 67.6552 -15.5005 2.33131e-006 -1.16313e-006 3.00756 -8.02942 -4.9516 -0.697702 175.966 -3.40257 0.702972 180 7.01567e-015 179.012 -179.885 12.5505 179.132 2.7829e-006 3.15208e-006 0.152717 -18.5573 71.9305 23.0651 8.13649 25.2327 -3.48774 -179.752 -8.24296 6.23258 4.54188e-006 -4.6773e-006 -1.42774 -4.83592 -7.05588 -0.165418 1.97748e-006 2.79695e-007 -0.214056 24.9133 71.3619 -23.1533 -8.13649 25.2327 3.48774 
53.1704 94.0463 14.6819 0.546676 -7.19084 1.34613 -0.163459 -2.60435 0.304064 -0.315486 -1.20978 0.623074 -0.322952 0.435241 0.629341 -4.05332 37.3232 -0.0370208 5.40502 -14.4678 -0.687712 24.9208 -14.1011 -10.8348 -5.93945 51.9899 91.7803 -2.82914e-006 4.06839e-007 9.2969e-006 2.34591 60.1795 -1.29395 -1.2275e-006 -9.43724e-007 -3 8.02921 -4.95153 0.697703 -24.9531 -13.2004 9.7758 0.990773 51.8358 -100.088 -1.78281e-005 2.34208e-007 -2.09019e-007 13.9196 67.9081 -15.6244 2.33131e-006 -1.16313e-006 3.00756 -8.02942 -4.9516 -0.697702 175.952 -3.40256 0.711497 180 7.01567e-015 179.012 -179.886 12.5623 179.132 2.7829e-006 3.15208e-006 0.152378 -18.552 71.9332 23.068 8.13649 25.2327 -3.48774 -179.765 -8.26109 6.23939 4.54188e-006 -4.6773e-006 -1.42797 -4.83499 -7.04432 -0.165392 1.97748e-006 2.79695e-007 -0.213855 24.9175 71.3596 -23.1517 -8.13649 25.2327 3.48774 
53.1771 94.0466 14.6823 0.551325 -7.19917 1.33261 -0.162535 -2.60168 0.304242 -0.313642 -1.20452 0.623267 -0.321118 0.440493 0.62949 -4.00173 37.3407 -0.0470097 5.34004 -14.4301 -0.690461 24.8846 -14.1019 -10.8385 -6.36839 51.9905 91.9522 -2.82914e-006 4.06839e-007 9.2969e-006 2.44293 60.4667 -1.37094 -1.2275e-006 -9.43724e-007 -3 8.02921 -4.95153 0.697703 -24.833 -13.2248 9.81119 1.29166 51.9279 -100.415 -1.78281e-005 2.34208e-007 -2.09019e-007 13.964 68.1822 -15.737 2.33131e-006 -1.16313e-006 3.00756 -8.02942 -4.9516 -0.697702 175.937 -3.40284 0.720284 180 7.01567e-015 179.013 -179.888 12.5732 179.131 2.7829e-006 3.15208e-006 0.151926 -18.5454 71.935 23.0696 8.13649 25.2327 -3.48774 -179.777 -8.27392 6.24558 4.54188e-006 -4.6773e-006 -1.42802 -4.83533 -7.03674 -0.166195 1.97748e-006 2.79695e-007 -0.213646 24.9208 71.3562 -23.1485 -8.13649 25.2327 3.48774 
53.1791 94.0432 14.6738 0.55603 -7.20766 1.31846 -0.161071 -2.59918 0.304485 -0.310714 -1.19946 0.623558 -0.318201 0.445561 0.629701 -3.95656 37.3563 -0.0533817 5.27064 -14.3817 -0.693947 24.843 -14.1027 -10.8427 -6.79181 51.9968 92.1307 -2.82914e-006 4.06839e-007 9.2969e-006 2.53703 60.7507 -1.44675 -1.2275e-006 -9.43724e-007 -3 8.02921 -4.95153 0.697703 -24.7225 -13.2478 9.84437 1.58238 52.0128 -100.705 -1.78281e-005 2.34208e-007 -2.09019e-007 13.9972 68.4687 -15.8384 2.33131e-006 -1.16313e-006 3.00756 -8.02942 -4.9516 -0.697702 175.922 -3.40313 0.729438 180 7.01567e-015 179.014 -179.89 12.5838 179.131 2.7829e-006 3.15208e-006 0.151358 -18.5376 71.9363 23.0703 8.13649 25.2327 -3.48774 -179.79 -8.28139 6.25146 4.54188e-006 -4.6773e-006 -1.42794 -4.8367 -7.03376 -0.167821 1.97748e-006 2.79695e-007 -0.213431 24.9238 71.352 -23.1442 -8.13649 25.2327 3.48774 
53.1851 94.0446 14.6764 0.560783 -7.2163 1.30371 -0.159142 -2.59683 0.304785 -0.306853 -1.19452 0.623928 -0.314354 0.450499 0.62996 -3.91714 37.3698 -0.0565445 5.19771 -14.3238 -0.698007 24.7968 -14.1035 -10.8474 -7.21094 52.0086 92.3162 -2.82914e-006 4.06839e-007 9.2969e-006 2.62814 61.0297 -1.52127 -1.2275e-006 -9.43724e-007 -3 8.02921 -4.95153 0.697703 -24.6205 -13.2698 9.87591 1.86377 52.0917 -100.962 -1.78281e-005 2.34208e-007 -2.09019e-007 14.0201 68.7659 -15.9296 2.33131e-006 -1.16313e-006 3.00756 -8.02942 -4.9516 -0.697702 175.906 -3.40346 0.738921 180 7.01567e-015 179.014 -179.892 12.5941 179.13 2.7829e-006 3.15208e-006 0.150689 -18.5287 71.9371 23.0702 8.13649 25.2327 -3.48774 -179.802 -8.28429 6.25705 4.54188e-006 -4.6773e-006 -1.42775 -4.83899 -7.03466 -0.170157 1.97748e-006 2.79695e-007 -0.21321 24.9267 71.347 -23.139 -8.13649 25.2327 3.48774 
53.1938 94.0485 14.6839 0.565576 -7.22507 1.28842 -0.156825 -2.59457 0.305131 -0.302212 -1.18966 0.62436 -0.30973 0.455358 0.630254 -3.88278 37.3813 -0.0569066 5.12214 -14.2577 -0.702477 24.7471 -14.1046 -10.8525 -7.62704 52.0251 92.5091 -2.82914e-006 4.06839e-007 9.2969e-006 2.71616 61.3021 -1.59435 -1.2275e-006 -9.43724e-007 -3 8.02921 -4.95153 0.697703 -24.5257 -13.2912 9.90637 2.13679 52.1654 -101.19 -1.78281e-005 2.34208e-007 -2.09019e-007 14.0336 69.0722 -16.0115 2.33131e-006 -1.16313e-006 3.00756 -8.02942 -4.9516 -0.697702 175.891 -3.40386 0.748691 180 7.01567e-015 179.015 -179.895 12.6041 179.13 2.7829e-006 3.15208e-006 0.149933 -18.5188 71.9375 23.0693 8.13649 25.2327 -3.48774 -179.815 -8.28339 6.26238 4.54188e-006 -4.6773e-006 -1.42745 -4.84206 -7.03869 -0.173088 1.97748e-006 2.79695e-007 -0.212982 24.9292 71.3414 -23.1329 -8.13649 25.2327 3.48774 
53.197 94.0479 14.6812 0.570401 -7.23399 1.27261 -0.154195 -2.59238 0.305514 -0.296945 -1.18483 0.624835 -0.30448 0.460191 0.630569 -3.85279 37.3908 -0.0548772 5.04483 -14.1849 -0.707195 24.6948 -14.106 -10.8583 -8.04133 52.046 92.7096 -2.82914e-006 4.06839e-007 9.2969e-006 2.80097 61.5663 -1.66584 -1.2275e-006 -9.43724e-007 -3 8.02921 -4.95153 0.697703 -24.4369 -13.3123 9.93631 2.40242 52.2348 -101.393 -1.78281e-005 2.34208e-007 -2.09019e-007 14.0387 69.3858 -16.085 2.33131e-006 -1.16313e-006 3.00756 -8.02942 -4.9516 -0.697702 175.875 -3.40436 0.758709 180 7.01567e-015 179.016 -179.897 12.6138 179.13 2.7829e-006 3.15208e-006 0.149104 -18.508 71.9373 23.0678 8.13649 25.2327 -3.48774 -179.828 -8.27949 6.26747 4.54188e-006 -4.6773e-006 -1.42707 -4.8458 -7.04512 -0.1765 1.97748e-006 2.79695e-007 -0.212749 24.9315 71.3351 -23.126 -8.13649 25.2327 3.48774 
53.1962 94.0408 14.6845 0.57525 -7.24302 1.25635 -0.151328 -2.5902 0.305925 -0.291202 -1.17996 0.625336 -0.298756 0.465053 0.630893 -3.82648 37.3982 -0.0508661 4.96667 -14.1064 -0.711997 24.6408 -14.1078 -10.8647 -8.45504 52.0706 92.918 -2.82914e-006 4.06839e-007 9.2969e-006 2.88244 61.8205 -1.73556 -1.2275e-006 -9.43724e-007 -3 8.02921 -4.95153 0.697703 -24.3531 -13.3335 9.96629 2.66178 52.3009 -101.575 -1.78281e-005 2.34208e-007 -2.09019e-007 14.0363 69.7051 -16.1509 2.33131e-006 -1.16313e-006 3.00756 -8.02942 -4.9516 -0.697702 175.858 -3.40499 0.768934 180 7.01568e-015 179.017 -179.9 12.6231 179.129 2.7829e-006 3.15208e-006 0.148217 -18.4964 71.9368 23.0656 8.13649 25.2327 -3.48774 -179.84 -8.27337 6.27237 4.54188e-006 -4.6773e-006 -1.4266 -4.85008 -7.05322 -0.180278 1.97748e-006 2.79695e-007 -0.212509 24.9333 71.3282 -23.1182 -8.13649 25.2327 3.48774 
53.2025 94.0428 14.685 0.580116 -7.25217 1.23965 -0.1483 -2.58799 0.306354 -0.285138 -1.17502 0.625844 -0.29271 0.469995 0.631213 -3.80316 37.4036 -0.0452838 4.88855 -14.0238 -0.716721 24.5863 -14.1102 -10.8718 -8.86942 52.0985 93.1348 -2.82914e-006 4.06839e-007 9.2969e-006 2.9604 62.0631 -1.80333 -1.2275e-006 -9.43724e-007 -3 8.02921 -4.95153 0.697703 -24.273 -13.3554 9.99689 2.91598 52.3643 -101.74 -1.78281e-005 2.34208e-007 -2.09019e-007 14.0272 70.0282 -16.2103 2.33131e-006 -1.16313e-006 3.00756 -8.02942 -4.9516 -0.697702 175.842 -3.40578 0.779327 180 7.01568e-015 179.018 -179.903 12.632 179.129 2.7829e-006 3.15208e-006 0.147286 -18.484 71.9359 23.0629 8.13649 25.2327 -3.48774 -179.853 -8.26583 6.2771 4.54188e-006 -4.6773e-006 -1.42608 -4.85479 -7.06225 -0.184309 1.97748e-006 2.79695e-007 -0.212262 24.9348 71.3208 -23.1098 -8.13649 25.2327 3.48774 
53.2184 94.0425 14.6879 0.58499 -7.26143 1.22258 -0.145187 -2.58572 0.306792 -0.278903 -1.16995 0.62634 -0.286495 0.47507 0.631514 -3.78215 37.4069 -0.0385411 4.81136 -13.9382 -0.721204 24.5321 -14.1132 -10.8796 -9.28567 52.1291 93.3601 -2.82914e-006 4.06839e-007 9.2969e-006 3.03468 62.2925 -1.86891 -1.2275e-006 -9.43724e-007 -3 8.02921 -4.95153 0.697703 -24.1954 -13.3782 10.0286 3.16619 52.4257 -101.892 -1.78281e-005 2.34208e-007 -2.09019e-007 14.0126 70.3536 -16.264 2.33131e-006 -1.16313e-006 3.00756 -8.02942 -4.9516 -0.697702 175.825 -3.40676 0.789848 180 7.01568e-015 179.019 -179.907 12.6405 179.129 2.7829e-006 3.15208e-006 0.146326 -18.471 71.9347 23.0596 8.13649 25.2327 -3.48774 -179.866 -8.25765 6.28168 4.54188e-006 -4.6773e-006 -1.4255 -4.85979 -7.07147 -0.188478 1.97748e-006 2.79695e-007 -0.21201 24.9358 71.313 -23.1007 -8.13649 25.2327 3.48774 
53.2223 94.0419 14.6892 0.589865 -7.27078 1.20517 -0.142065 -2.58334 0.30723 -0.272652 -1.16469 0.626808 -0.280262 0.480331 0.631785 -3.76276 37.4082 -0.0310489 4.736 -13.8509 -0.725284 24.4792 -14.1169 -10.8881 -9.70502 52.1619 93.5943 -2.82914e-006 4.06839e-007 9.2969e-006 3.10508 62.507 -1.93208 -1.2275e-006 -9.43724e-007 -3 8.02921 -4.95153 0.697703 -24.1191 -13.4024 10.0621 3.41371 52.4858 -102.036 -1.78281e-005 2.34208e-007 -2.09019e-007 13.9933 70.6795 -16.313 2.33131e-006 -1.16313e-006 3.00756 -8.02942 -4.9516 -0.697702 175.808 -3.40797 0.800455 180 7.01568e-015 179.019 -179.91 12.6485 179.129 2.7829e-006 3.15208e-006 0.145351 -18.4575 71.9331 23.0559 8.13649 25.2327 -3.48774 -179.878 -8.24963 6.28616 4.54188e-006 -4.6773e-006 -1.42488 -4.86497 -7.08015 -0.19267 1.97748e-006 2.79695e-007 -0.21175 24.9363 71.3047 -23.091 -8.13649 25.2327 3.48774 
53.2215 94.0417 14.6934 0.594732 -7.28023 1.18746 -0.139009 -2.58081 0.307658 -0.266536 -1.15919 0.627228 -0.274163 0.485831 0.632011 -3.74429 37.4074 -0.0232185 4.66333 -13.7633 -0.7288 24.4285 -14.1215 -10.8975 -10.1286 52.1963 93.8376 -2.82914e-006 4.06839e-007 9.2969e-006 3.17139 62.7049 -1.99259 -1.2275e-006 -9.43724e-007 -3 8.02921 -4.95153 0.697703 -24.043 -13.4284 10.0979 3.65976 52.5452 -102.175 -1.78281e-005 2.34208e-007 -2.09019e-007 13.9704 71.0041 -16.3582 2.33131e-006 -1.16313e-006 3.00756 -8.02942 -4.9516 -0.697702 175.792 -3.40943 0.81111 180 7.01568e-015 179.02 -179.913 12.6561 179.129 2.7829e-006 3.15208e-006 0.144375 -18.4435 71.9313 23.0519 8.13649 25.2327 -3.48774 -179.891 -8.24254 6.29055 4.54188e-006 -4.6773e-006 -1.42424 -4.87019 -7.08756 -0.196772 1.97748e-006 2.79695e-007 -0.211484 24.9363 71.296 -23.0808 -8.13649 25.2327 3.48774 
